<mxfile host="Electron" agent="Mozilla/5.0 (Windows NT 10.0; Win64; x64) AppleWebKit/537.36 (KHTML, like Gecko) draw.io/24.7.17 Chrome/128.0.6613.36 Electron/32.0.1 Safari/537.36" version="24.7.17">
  <diagram name="第 1 页" id="z-rXERoXQJ4ntiLA9gSo">
    <mxGraphModel dx="1027" dy="654" grid="1" gridSize="10" guides="1" tooltips="1" connect="1" arrows="1" fold="1" page="1" pageScale="1" pageWidth="1169" pageHeight="827" math="0" shadow="0">
      <root>
        <mxCell id="0" />
        <mxCell id="1" parent="0" />
        <mxCell id="SHSmSc6TRY10URl3dONZ-42" style="edgeStyle=orthogonalEdgeStyle;rounded=0;sketch=1;hachureGap=4;jiggle=2;curveFitting=1;orthogonalLoop=1;jettySize=auto;html=1;exitX=0.5;exitY=0;exitDx=0;exitDy=0;entryX=0.5;entryY=1;entryDx=0;entryDy=0;fontFamily=Architects Daughter;fontSource=https%3A%2F%2Ffonts.googleapis.com%2Fcss%3Ffamily%3DArchitects%2BDaughter;" edge="1" parent="1" source="X-KNbE4_77TVtyhXKSKV-1" target="SHSmSc6TRY10URl3dONZ-11">
          <mxGeometry relative="1" as="geometry" />
        </mxCell>
        <mxCell id="SHSmSc6TRY10URl3dONZ-43" style="edgeStyle=orthogonalEdgeStyle;rounded=0;sketch=1;hachureGap=4;jiggle=2;curveFitting=1;orthogonalLoop=1;jettySize=auto;html=1;exitX=0;exitY=0.25;exitDx=0;exitDy=0;entryX=1;entryY=0.5;entryDx=0;entryDy=0;fontFamily=Architects Daughter;fontSource=https%3A%2F%2Ffonts.googleapis.com%2Fcss%3Ffamily%3DArchitects%2BDaughter;" edge="1" parent="1" source="X-KNbE4_77TVtyhXKSKV-1" target="SHSmSc6TRY10URl3dONZ-6">
          <mxGeometry relative="1" as="geometry" />
        </mxCell>
        <mxCell id="SHSmSc6TRY10URl3dONZ-45" style="edgeStyle=orthogonalEdgeStyle;rounded=0;sketch=1;hachureGap=4;jiggle=2;curveFitting=1;orthogonalLoop=1;jettySize=auto;html=1;exitX=0.75;exitY=0;exitDx=0;exitDy=0;entryX=0.25;entryY=1;entryDx=0;entryDy=0;fontFamily=Architects Daughter;fontSource=https%3A%2F%2Ffonts.googleapis.com%2Fcss%3Ffamily%3DArchitects%2BDaughter;" edge="1" parent="1" source="X-KNbE4_77TVtyhXKSKV-1" target="nCVr7IcUI8Lism5Ihh-a-1">
          <mxGeometry relative="1" as="geometry" />
        </mxCell>
        <mxCell id="X-KNbE4_77TVtyhXKSKV-1" value="&lt;font style=&quot;font-size: 14px;&quot; face=&quot;Consolas&quot;&gt;ReOrder Buffer&lt;/font&gt;" style="rounded=1;whiteSpace=wrap;html=1;labelBackgroundColor=none;sketch=1;curveFitting=1;jiggle=2;fillColor=#09555B;strokeColor=#BAC8D3;fontColor=#EEEEEE;" parent="1" vertex="1">
          <mxGeometry x="450" y="390" width="100" height="60" as="geometry" />
        </mxCell>
        <mxCell id="SHSmSc6TRY10URl3dONZ-33" style="edgeStyle=orthogonalEdgeStyle;rounded=0;sketch=1;hachureGap=4;jiggle=2;curveFitting=1;orthogonalLoop=1;jettySize=auto;html=1;exitX=0.5;exitY=0;exitDx=0;exitDy=0;entryX=0.5;entryY=1;entryDx=0;entryDy=0;fontFamily=Architects Daughter;fontSource=https%3A%2F%2Ffonts.googleapis.com%2Fcss%3Ffamily%3DArchitects%2BDaughter;" edge="1" parent="1" source="nCVr7IcUI8Lism5Ihh-a-1" target="SHSmSc6TRY10URl3dONZ-30">
          <mxGeometry relative="1" as="geometry" />
        </mxCell>
        <mxCell id="SHSmSc6TRY10URl3dONZ-35" style="edgeStyle=orthogonalEdgeStyle;rounded=0;sketch=1;hachureGap=4;jiggle=2;curveFitting=1;orthogonalLoop=1;jettySize=auto;html=1;exitX=0;exitY=0.5;exitDx=0;exitDy=0;entryX=1;entryY=0.5;entryDx=0;entryDy=0;fontFamily=Architects Daughter;fontSource=https%3A%2F%2Ffonts.googleapis.com%2Fcss%3Ffamily%3DArchitects%2BDaughter;" edge="1" parent="1" source="nCVr7IcUI8Lism5Ihh-a-1" target="SHSmSc6TRY10URl3dONZ-11">
          <mxGeometry relative="1" as="geometry" />
        </mxCell>
        <mxCell id="SHSmSc6TRY10URl3dONZ-44" style="edgeStyle=orthogonalEdgeStyle;rounded=0;sketch=1;hachureGap=4;jiggle=2;curveFitting=1;orthogonalLoop=1;jettySize=auto;html=1;exitX=0.25;exitY=1;exitDx=0;exitDy=0;entryX=0.75;entryY=0;entryDx=0;entryDy=0;fontFamily=Architects Daughter;fontSource=https%3A%2F%2Ffonts.googleapis.com%2Fcss%3Ffamily%3DArchitects%2BDaughter;" edge="1" parent="1" source="nCVr7IcUI8Lism5Ihh-a-1" target="X-KNbE4_77TVtyhXKSKV-1">
          <mxGeometry relative="1" as="geometry" />
        </mxCell>
        <mxCell id="nCVr7IcUI8Lism5Ihh-a-1" value="&lt;font face=&quot;Consolas&quot;&gt;&lt;span style=&quot;font-size: 14px;&quot;&gt;Load-Store Buffer&lt;/span&gt;&lt;/font&gt;" style="rounded=1;whiteSpace=wrap;html=1;labelBackgroundColor=none;sketch=1;curveFitting=1;jiggle=2;fillColor=#09555B;strokeColor=#BAC8D3;fontColor=#EEEEEE;" parent="1" vertex="1">
          <mxGeometry x="600" y="270" width="100" height="60" as="geometry" />
        </mxCell>
        <mxCell id="SHSmSc6TRY10URl3dONZ-36" style="edgeStyle=orthogonalEdgeStyle;rounded=0;sketch=1;hachureGap=4;jiggle=2;curveFitting=1;orthogonalLoop=1;jettySize=auto;html=1;exitX=0.5;exitY=0;exitDx=0;exitDy=0;entryX=0.5;entryY=1;entryDx=0;entryDy=0;fontFamily=Architects Daughter;fontSource=https%3A%2F%2Ffonts.googleapis.com%2Fcss%3Ffamily%3DArchitects%2BDaughter;" edge="1" parent="1" source="SHSmSc6TRY10URl3dONZ-1" target="nCVr7IcUI8Lism5Ihh-a-1">
          <mxGeometry relative="1" as="geometry" />
        </mxCell>
        <mxCell id="SHSmSc6TRY10URl3dONZ-40" style="edgeStyle=orthogonalEdgeStyle;rounded=0;sketch=1;hachureGap=4;jiggle=2;curveFitting=1;orthogonalLoop=1;jettySize=auto;html=1;exitX=0;exitY=0.5;exitDx=0;exitDy=0;entryX=1;entryY=0.5;entryDx=0;entryDy=0;fontFamily=Architects Daughter;fontSource=https%3A%2F%2Ffonts.googleapis.com%2Fcss%3Ffamily%3DArchitects%2BDaughter;" edge="1" parent="1" source="SHSmSc6TRY10URl3dONZ-1" target="X-KNbE4_77TVtyhXKSKV-1">
          <mxGeometry relative="1" as="geometry" />
        </mxCell>
        <mxCell id="SHSmSc6TRY10URl3dONZ-1" value="&lt;font face=&quot;Consolas&quot;&gt;&lt;span style=&quot;font-size: 14px;&quot;&gt;ALU&lt;/span&gt;&lt;/font&gt;" style="rounded=1;whiteSpace=wrap;html=1;labelBackgroundColor=none;sketch=1;curveFitting=1;jiggle=2;fillColor=#09555B;strokeColor=#BAC8D3;fontColor=#EEEEEE;" vertex="1" parent="1">
          <mxGeometry x="600" y="390" width="100" height="60" as="geometry" />
        </mxCell>
        <mxCell id="SHSmSc6TRY10URl3dONZ-25" style="edgeStyle=orthogonalEdgeStyle;rounded=0;sketch=1;hachureGap=4;jiggle=2;curveFitting=1;orthogonalLoop=1;jettySize=auto;html=1;exitX=0;exitY=0.5;exitDx=0;exitDy=0;entryX=1;entryY=0.5;entryDx=0;entryDy=0;fontFamily=Architects Daughter;fontSource=https%3A%2F%2Ffonts.googleapis.com%2Fcss%3Ffamily%3DArchitects%2BDaughter;" edge="1" parent="1" source="SHSmSc6TRY10URl3dONZ-2" target="SHSmSc6TRY10URl3dONZ-24">
          <mxGeometry relative="1" as="geometry" />
        </mxCell>
        <mxCell id="SHSmSc6TRY10URl3dONZ-31" style="edgeStyle=orthogonalEdgeStyle;rounded=0;sketch=1;hachureGap=4;jiggle=2;curveFitting=1;orthogonalLoop=1;jettySize=auto;html=1;exitX=1;exitY=0.5;exitDx=0;exitDy=0;entryX=0;entryY=0.5;entryDx=0;entryDy=0;fontFamily=Architects Daughter;fontSource=https%3A%2F%2Ffonts.googleapis.com%2Fcss%3Ffamily%3DArchitects%2BDaughter;" edge="1" parent="1" source="SHSmSc6TRY10URl3dONZ-2" target="SHSmSc6TRY10URl3dONZ-30">
          <mxGeometry relative="1" as="geometry" />
        </mxCell>
        <mxCell id="SHSmSc6TRY10URl3dONZ-2" value="&lt;font face=&quot;Consolas&quot;&gt;&lt;span style=&quot;font-size: 14px;&quot;&gt;Memory I/O Controller&lt;/span&gt;&lt;/font&gt;" style="rounded=1;whiteSpace=wrap;html=1;labelBackgroundColor=none;sketch=1;curveFitting=1;jiggle=2;fillColor=#09555B;strokeColor=#BAC8D3;fontColor=#EEEEEE;" vertex="1" parent="1">
          <mxGeometry x="450" y="150" width="100" height="60" as="geometry" />
        </mxCell>
        <mxCell id="SHSmSc6TRY10URl3dONZ-4" style="edgeStyle=orthogonalEdgeStyle;rounded=0;sketch=1;hachureGap=4;jiggle=2;curveFitting=1;orthogonalLoop=1;jettySize=auto;html=1;exitX=0.5;exitY=1;exitDx=0;exitDy=0;entryX=0.5;entryY=0;entryDx=0;entryDy=0;fontFamily=Architects Daughter;fontSource=https%3A%2F%2Ffonts.googleapis.com%2Fcss%3Ffamily%3DArchitects%2BDaughter;" edge="1" parent="1" source="SHSmSc6TRY10URl3dONZ-3" target="SHSmSc6TRY10URl3dONZ-2">
          <mxGeometry relative="1" as="geometry" />
        </mxCell>
        <mxCell id="SHSmSc6TRY10URl3dONZ-3" value="&lt;font face=&quot;Lucida Console&quot; style=&quot;font-size: 20px;&quot;&gt;&lt;b&gt;Memory&lt;/b&gt;&lt;/font&gt;" style="rounded=1;whiteSpace=wrap;html=1;sketch=1;hachureGap=4;jiggle=2;curveFitting=1;fontFamily=Architects Daughter;fontSource=https%3A%2F%2Ffonts.googleapis.com%2Fcss%3Ffamily%3DArchitects%2BDaughter;" vertex="1" parent="1">
          <mxGeometry x="410" y="20" width="180" height="80" as="geometry" />
        </mxCell>
        <mxCell id="SHSmSc6TRY10URl3dONZ-15" style="edgeStyle=orthogonalEdgeStyle;rounded=0;sketch=1;hachureGap=4;jiggle=2;curveFitting=1;orthogonalLoop=1;jettySize=auto;html=1;exitX=0;exitY=0.25;exitDx=0;exitDy=0;entryX=1;entryY=0.25;entryDx=0;entryDy=0;fontFamily=Architects Daughter;fontSource=https%3A%2F%2Ffonts.googleapis.com%2Fcss%3Ffamily%3DArchitects%2BDaughter;" edge="1" parent="1" source="SHSmSc6TRY10URl3dONZ-6" target="SHSmSc6TRY10URl3dONZ-12">
          <mxGeometry relative="1" as="geometry" />
        </mxCell>
        <mxCell id="SHSmSc6TRY10URl3dONZ-28" style="edgeStyle=orthogonalEdgeStyle;rounded=0;sketch=1;hachureGap=4;jiggle=2;curveFitting=1;orthogonalLoop=1;jettySize=auto;html=1;exitX=0.5;exitY=0;exitDx=0;exitDy=0;entryX=0.5;entryY=1;entryDx=0;entryDy=0;fontFamily=Architects Daughter;fontSource=https%3A%2F%2Ffonts.googleapis.com%2Fcss%3Ffamily%3DArchitects%2BDaughter;" edge="1" parent="1" source="SHSmSc6TRY10URl3dONZ-6" target="SHSmSc6TRY10URl3dONZ-24">
          <mxGeometry relative="1" as="geometry" />
        </mxCell>
        <mxCell id="SHSmSc6TRY10URl3dONZ-41" style="edgeStyle=orthogonalEdgeStyle;rounded=0;sketch=1;hachureGap=4;jiggle=2;curveFitting=1;orthogonalLoop=1;jettySize=auto;html=1;exitX=0.75;exitY=1;exitDx=0;exitDy=0;entryX=0;entryY=0.5;entryDx=0;entryDy=0;fontFamily=Architects Daughter;fontSource=https%3A%2F%2Ffonts.googleapis.com%2Fcss%3Ffamily%3DArchitects%2BDaughter;" edge="1" parent="1" source="SHSmSc6TRY10URl3dONZ-6" target="X-KNbE4_77TVtyhXKSKV-1">
          <mxGeometry relative="1" as="geometry" />
        </mxCell>
        <mxCell id="SHSmSc6TRY10URl3dONZ-6" value="&lt;font face=&quot;Consolas&quot;&gt;&lt;span style=&quot;font-size: 14px;&quot;&gt;Instructions Manager&lt;/span&gt;&lt;/font&gt;" style="rounded=1;whiteSpace=wrap;html=1;labelBackgroundColor=none;sketch=1;curveFitting=1;jiggle=2;fillColor=#09555B;strokeColor=#BAC8D3;fontColor=#EEEEEE;" vertex="1" parent="1">
          <mxGeometry x="300" y="270" width="100" height="60" as="geometry" />
        </mxCell>
        <mxCell id="SHSmSc6TRY10URl3dONZ-39" style="edgeStyle=orthogonalEdgeStyle;rounded=0;sketch=1;hachureGap=4;jiggle=2;curveFitting=1;orthogonalLoop=1;jettySize=auto;html=1;exitX=1;exitY=0.75;exitDx=0;exitDy=0;entryX=0;entryY=0.25;entryDx=0;entryDy=0;fontFamily=Architects Daughter;fontSource=https%3A%2F%2Ffonts.googleapis.com%2Fcss%3Ffamily%3DArchitects%2BDaughter;" edge="1" parent="1" source="SHSmSc6TRY10URl3dONZ-11" target="SHSmSc6TRY10URl3dONZ-1">
          <mxGeometry relative="1" as="geometry" />
        </mxCell>
        <mxCell id="SHSmSc6TRY10URl3dONZ-11" value="&lt;font face=&quot;Consolas&quot;&gt;&lt;span style=&quot;font-size: 14px;&quot;&gt;Reservation Station&lt;/span&gt;&lt;/font&gt;" style="rounded=1;whiteSpace=wrap;html=1;labelBackgroundColor=none;sketch=1;curveFitting=1;jiggle=2;fillColor=#09555B;strokeColor=#BAC8D3;fontColor=#EEEEEE;" vertex="1" parent="1">
          <mxGeometry x="450" y="270" width="100" height="60" as="geometry" />
        </mxCell>
        <mxCell id="SHSmSc6TRY10URl3dONZ-16" style="edgeStyle=orthogonalEdgeStyle;rounded=0;sketch=1;hachureGap=4;jiggle=2;curveFitting=1;orthogonalLoop=1;jettySize=auto;html=1;exitX=1;exitY=0.75;exitDx=0;exitDy=0;entryX=0;entryY=0.75;entryDx=0;entryDy=0;fontFamily=Architects Daughter;fontSource=https%3A%2F%2Ffonts.googleapis.com%2Fcss%3Ffamily%3DArchitects%2BDaughter;" edge="1" parent="1" source="SHSmSc6TRY10URl3dONZ-12" target="SHSmSc6TRY10URl3dONZ-6">
          <mxGeometry relative="1" as="geometry" />
        </mxCell>
        <mxCell id="SHSmSc6TRY10URl3dONZ-12" value="&lt;font face=&quot;Consolas&quot;&gt;&lt;span style=&quot;font-size: 14px;&quot;&gt;Branch Predictor&lt;/span&gt;&lt;/font&gt;" style="rounded=1;whiteSpace=wrap;html=1;labelBackgroundColor=none;sketch=1;curveFitting=1;jiggle=2;fillColor=#09555B;strokeColor=#BAC8D3;fontColor=#EEEEEE;" vertex="1" parent="1">
          <mxGeometry x="140" y="270" width="100" height="60" as="geometry" />
        </mxCell>
        <mxCell id="SHSmSc6TRY10URl3dONZ-21" style="edgeStyle=orthogonalEdgeStyle;rounded=0;sketch=1;hachureGap=4;jiggle=2;curveFitting=1;orthogonalLoop=1;jettySize=auto;html=1;exitX=0.62;exitY=0;exitDx=0;exitDy=0;exitPerimeter=0;entryX=0.75;entryY=1;entryDx=0;entryDy=0;fontFamily=Architects Daughter;fontSource=https%3A%2F%2Ffonts.googleapis.com%2Fcss%3Ffamily%3DArchitects%2BDaughter;" edge="1" parent="1" source="SHSmSc6TRY10URl3dONZ-17" target="X-KNbE4_77TVtyhXKSKV-1">
          <mxGeometry relative="1" as="geometry" />
        </mxCell>
        <mxCell id="SHSmSc6TRY10URl3dONZ-37" style="edgeStyle=orthogonalEdgeStyle;rounded=0;sketch=1;hachureGap=4;jiggle=2;curveFitting=1;orthogonalLoop=1;jettySize=auto;html=1;exitX=1;exitY=0.5;exitDx=0;exitDy=0;exitPerimeter=0;entryX=0.5;entryY=1;entryDx=0;entryDy=0;fontFamily=Architects Daughter;fontSource=https%3A%2F%2Ffonts.googleapis.com%2Fcss%3Ffamily%3DArchitects%2BDaughter;" edge="1" parent="1" source="SHSmSc6TRY10URl3dONZ-17" target="SHSmSc6TRY10URl3dONZ-1">
          <mxGeometry relative="1" as="geometry" />
        </mxCell>
        <mxCell id="SHSmSc6TRY10URl3dONZ-17" value="&lt;font face=&quot;Lucida Console&quot; style=&quot;font-size: 20px;&quot;&gt;&lt;b&gt;Register&lt;/b&gt;&lt;/font&gt;&lt;div&gt;&lt;font face=&quot;Lucida Console&quot;&gt;&lt;span style=&quot;font-size: 20px;&quot;&gt;&lt;b&gt;File&lt;/b&gt;&lt;/span&gt;&lt;/font&gt;&lt;/div&gt;" style="rounded=1;whiteSpace=wrap;html=1;sketch=1;hachureGap=4;jiggle=2;curveFitting=1;fontFamily=Architects Daughter;fontSource=https%3A%2F%2Ffonts.googleapis.com%2Fcss%3Ffamily%3DArchitects%2BDaughter;points=[[0,0,0,0,0],[0,0.25,0,0,0],[0,0.5,0,0,0],[0,0.75,0,0,0],[0,1,0,0,0],[0.25,0,0,0,0],[0.25,1,0,0,0],[0.5,0,0,0,0],[0.5,1,0,0,0],[0.62,0,0,0,0],[0.75,0.01,0,0,1],[0.75,1,0,0,0],[1,0,0,0,0],[1,0.25,0,0,0],[1,0.5,0,0,0],[1,0.75,0,0,0],[1,1,0,0,0]];" vertex="1" parent="1">
          <mxGeometry x="410" y="500" width="180" height="80" as="geometry" />
        </mxCell>
        <mxCell id="SHSmSc6TRY10URl3dONZ-19" style="edgeStyle=orthogonalEdgeStyle;rounded=0;sketch=1;hachureGap=4;jiggle=2;curveFitting=1;orthogonalLoop=1;jettySize=auto;html=1;exitX=0.25;exitY=1;exitDx=0;exitDy=0;entryX=0.389;entryY=0.032;entryDx=0;entryDy=0;entryPerimeter=0;fontFamily=Architects Daughter;fontSource=https%3A%2F%2Ffonts.googleapis.com%2Fcss%3Ffamily%3DArchitects%2BDaughter;" edge="1" parent="1" source="X-KNbE4_77TVtyhXKSKV-1" target="SHSmSc6TRY10URl3dONZ-17">
          <mxGeometry relative="1" as="geometry" />
        </mxCell>
        <mxCell id="SHSmSc6TRY10URl3dONZ-26" style="edgeStyle=orthogonalEdgeStyle;rounded=0;sketch=1;hachureGap=4;jiggle=2;curveFitting=1;orthogonalLoop=1;jettySize=auto;html=1;exitX=1;exitY=0.5;exitDx=0;exitDy=0;entryX=0;entryY=0.5;entryDx=0;entryDy=0;fontFamily=Architects Daughter;fontSource=https%3A%2F%2Ffonts.googleapis.com%2Fcss%3Ffamily%3DArchitects%2BDaughter;" edge="1" parent="1" source="SHSmSc6TRY10URl3dONZ-24" target="SHSmSc6TRY10URl3dONZ-2">
          <mxGeometry relative="1" as="geometry" />
        </mxCell>
        <mxCell id="SHSmSc6TRY10URl3dONZ-27" style="edgeStyle=orthogonalEdgeStyle;rounded=0;sketch=1;hachureGap=4;jiggle=2;curveFitting=1;orthogonalLoop=1;jettySize=auto;html=1;exitX=0.5;exitY=1;exitDx=0;exitDy=0;entryX=0.5;entryY=0;entryDx=0;entryDy=0;fontFamily=Architects Daughter;fontSource=https%3A%2F%2Ffonts.googleapis.com%2Fcss%3Ffamily%3DArchitects%2BDaughter;" edge="1" parent="1" source="SHSmSc6TRY10URl3dONZ-24" target="SHSmSc6TRY10URl3dONZ-6">
          <mxGeometry relative="1" as="geometry" />
        </mxCell>
        <mxCell id="SHSmSc6TRY10URl3dONZ-24" value="&lt;font face=&quot;Consolas&quot;&gt;&lt;span style=&quot;font-size: 14px;&quot;&gt;Instruction Cache&lt;/span&gt;&lt;/font&gt;" style="rounded=1;whiteSpace=wrap;html=1;labelBackgroundColor=none;sketch=1;curveFitting=1;jiggle=2;fillColor=#09555B;strokeColor=#BAC8D3;fontColor=#EEEEEE;" vertex="1" parent="1">
          <mxGeometry x="300" y="150" width="100" height="60" as="geometry" />
        </mxCell>
        <mxCell id="SHSmSc6TRY10URl3dONZ-29" style="edgeStyle=orthogonalEdgeStyle;rounded=0;sketch=1;hachureGap=4;jiggle=2;curveFitting=1;orthogonalLoop=1;jettySize=auto;html=1;exitX=0.5;exitY=1;exitDx=0;exitDy=0;entryX=0;entryY=0.5;entryDx=0;entryDy=0;entryPerimeter=0;fontFamily=Architects Daughter;fontSource=https%3A%2F%2Ffonts.googleapis.com%2Fcss%3Ffamily%3DArchitects%2BDaughter;" edge="1" parent="1" source="SHSmSc6TRY10URl3dONZ-6" target="SHSmSc6TRY10URl3dONZ-17">
          <mxGeometry relative="1" as="geometry" />
        </mxCell>
        <mxCell id="SHSmSc6TRY10URl3dONZ-32" style="edgeStyle=orthogonalEdgeStyle;rounded=0;sketch=1;hachureGap=4;jiggle=2;curveFitting=1;orthogonalLoop=1;jettySize=auto;html=1;exitX=0;exitY=0.5;exitDx=0;exitDy=0;entryX=1;entryY=0.5;entryDx=0;entryDy=0;fontFamily=Architects Daughter;fontSource=https%3A%2F%2Ffonts.googleapis.com%2Fcss%3Ffamily%3DArchitects%2BDaughter;" edge="1" parent="1" source="SHSmSc6TRY10URl3dONZ-30" target="SHSmSc6TRY10URl3dONZ-2">
          <mxGeometry relative="1" as="geometry" />
        </mxCell>
        <mxCell id="SHSmSc6TRY10URl3dONZ-34" style="edgeStyle=orthogonalEdgeStyle;rounded=0;sketch=1;hachureGap=4;jiggle=2;curveFitting=1;orthogonalLoop=1;jettySize=auto;html=1;exitX=0.5;exitY=1;exitDx=0;exitDy=0;entryX=0.5;entryY=0;entryDx=0;entryDy=0;fontFamily=Architects Daughter;fontSource=https%3A%2F%2Ffonts.googleapis.com%2Fcss%3Ffamily%3DArchitects%2BDaughter;" edge="1" parent="1" source="SHSmSc6TRY10URl3dONZ-30" target="nCVr7IcUI8Lism5Ihh-a-1">
          <mxGeometry relative="1" as="geometry" />
        </mxCell>
        <mxCell id="SHSmSc6TRY10URl3dONZ-30" value="&lt;font face=&quot;Consolas&quot;&gt;&lt;span style=&quot;font-size: 14px;&quot;&gt;Data Cache&lt;/span&gt;&lt;/font&gt;" style="rounded=1;whiteSpace=wrap;html=1;labelBackgroundColor=none;sketch=1;curveFitting=1;jiggle=2;fillColor=#09555B;strokeColor=#BAC8D3;fontColor=#EEEEEE;" vertex="1" parent="1">
          <mxGeometry x="600" y="150" width="100" height="60" as="geometry" />
        </mxCell>
      </root>
    </mxGraphModel>
  </diagram>
</mxfile>
